<svg width="45" height="36" viewBox="0 0 45 36" fill="none" xmlns="http://www.w3.org/2000/svg">
<path d="M35.625 33H9.375C7.30393 33 5.625 31.6569 5.625 30V9C5.625 7.34315 7.30393 6 9.375 6H13.125V3H16.875V6H28.125V3H31.875V6H35.625C37.6961 6 39.375 7.34315 39.375 9V30C39.375 31.6569 37.6961 33 35.625 33ZM9.375 15V30H35.625V15H9.375ZM9.375 9V12H35.625V9H9.375ZM31.875 27H28.125V24H31.875V27ZM24.375 27H20.625V24H24.375V27ZM16.875 27H13.125V24H16.875V27ZM31.875 21H28.125V18H31.875V21ZM24.375 21H20.625V18H24.375V21ZM16.875 21H13.125V18H16.875V21Z" fill="#2E3A59"/>
</svg>
