<?xml version="1.0"?>
<svg width="3069.68" height="1608.56" xmlns="http://www.w3.org/2000/svg" xmlns:svg="http://www.w3.org/2000/svg" enable-background="new 0 0 3069.68 1608.56" version="1.1" xml:space="preserve">
 <style type="text/css">.st0{fill:#84929A;}
	.st1{fill:#BFBFBF;}
	.st2{fill:#E4E4E4;}
	.st3{fill:#F1F1F1;}
	.st4{enable-background:new    ;}
	.st5{fill:#FEFEFE;}</style>
 <g class="layer">
  <title>Layer 1</title>
  <polygon class="st0" id="svg_1" points="3047.860107421875,1605.56005859375 3017.550048828125,1094.4000244140625 2360,26.020004272460938 78.37000274658203,389.6400146484375 77.86000061035156,401.8900146484375 96.66000366210938,423.3699951171875 47.86000061035156,1605.56005859375 " transform="matrix(1 0 0 1 0 0)"/>
  <polygon class="st1" id="svg_2" points="2347,29.02 2347.48,41.12 64.86,404.89 65.37,392.64 "/>
  <g id="svg_3" transform="matrix(1 0 0 1 0 0)">
   <polygon class="st2" id="svg_4" points="2256.56,146.3 2255.18,95.21 2181.67,106.92 2182.88,157.96  "/>
   <polygon class="st2" id="svg_5" points="2183.05,165 2188.08,377.25 2262.52,365.64 2256.56,153.37  "/>
   <polygon class="st2" id="svg_6" points="2191.15,506.55 2266.03,494.88 2262.7,372.28 2188.24,383.89  "/>
   <polygon class="st2" id="svg_7" points="2092.82,172.21 2091.61,121.28 2017.42,133.1 2018.37,184  "/>
   <polygon class="st2" id="svg_8" points="2018.52,191.04 2022.46,403.08 2098.01,391.3 2092.82,179.28  "/>
   <polygon class="st2" id="svg_9" points="2024.87,532.49 2101.08,520.6 2098.17,397.94 2022.58,409.73  "/>
   <polygon class="st2" id="svg_10" points="1859.94,558.21 1935.91,546.36 1933.63,423.6 1858.27,435.36  "/>
   <polygon class="st2" id="svg_11" points="1858.18,428.7 1933.51,416.95 1929.56,205.12 1855.29,216.96  "/>
   <polygon class="st2" id="svg_12" points="1929.43,198.07 1928.48,147.27 1854.51,159.06 1855.2,209.82  "/>
   <polygon class="st2" id="svg_13" points="1765.72,223.98 1765.03,173.32 1691.63,185.02 1692.04,235.64  "/>
   <polygon class="st2" id="svg_14" points="1692.1,242.7 1693.81,453.64 1768.69,442.66 1765.72,231.05  "/>
   <polygon class="st2" id="svg_15" points="1693.87,461 1694.84,583.97 1770.45,572.17 1768.69,449.33  "/>
   <polygon class="st2" id="svg_16" points="1531.38,609.46 1606.8,597.7 1605.8,474.74 1530.38,486.5  "/>
   <polygon class="st2" id="svg_17" points="1530.33,479.84 1605.74,468.08 1604.02,256.64 1528.61,268.58  "/>
   <polygon class="st2" id="svg_18" points="1603.96,249.58 1603.55,199.06 1528.14,211.07 1528.55,261.52  "/>
   <polygon class="st2" id="svg_19" points="1441.89,224.82 1365.94,236.92 1365.94,287.26 1441.89,275.23  "/>
   <polygon class="st2" id="svg_20" points="1442.1,282.27 1365.94,294.32 1365.94,505.48 1442.87,493.48  "/>
   <polygon class="st2" id="svg_21" points="1442.89,500.14 1365.94,512.15 1365.94,635.26 1443.34,623.19  "/>
   <polygon class="st2" id="svg_22" points="1201.94,660.84 1279.06,648.82 1279.44,525.64 1202.19,537.69  "/>
   <polygon class="st2" id="svg_23" points="1202.19,531.02 1279.46,518.97 1280.12,307.91 1203,320.11  "/>
   <polygon class="st2" id="svg_24" points="1203.02,313.04 1280.14,300.83 1280.29,250.57 1203.16,262.86  "/>
   <polygon class="st2" id="svg_25" points="1119.31,276.23 1043.47,288.31 1042.98,338.37 1118.83,326.37  "/>
   <polygon class="st2" id="svg_26" points="1118.76,333.44 1042.91,345.45 1040.65,556.21 1116.71,544.35  "/>
   <polygon class="st2" id="svg_27" points="1116.38,551.07 1040.8,562.86 1039.24,686.22 1115.45,674.33  "/>
   <polygon class="st2" id="svg_28" points="952.68,576.68 880.11,587.92 877.91,711.38 950.93,699.99  "/>
   <polygon class="st2" id="svg_29" points="793.2,601.48 717.31,613.31 714.98,736.79 790.67,724.99  "/>
   <polygon class="st2" id="svg_30" points="797.1,384.35 721.35,396.34 717.44,606.63 793.13,594.71  "/>
   <polygon class="st2" id="svg_31" points="798.36,327.38 722.48,339.47 721.54,389.24 797.23,377.26  "/>
   <polygon class="st2" id="svg_32" points="635.92,353.26 561.22,365.17 560.1,414.79 634.8,402.97  "/>
   <polygon class="st2" id="svg_33" points="634.64,410.07 559.94,421.89 555.21,631.93 629.9,620.28  "/>
   <polygon class="st2" id="svg_34" points="629.85,626.96 555.06,638.62 552.27,762.17 626.96,750.52  "/>
   <polygon class="st2" id="svg_35" points="467.38,652.3 394.14,663.72 390.46,787.41 464.02,775.94  "/>
   <polygon class="st2" id="svg_36" points="473.27,435.6 400.59,446.83 394.38,657.01 467.56,645.6  "/>
   <polygon class="st2" id="svg_37" points="474.81,378.94 402.26,390.5 400.78,440.01 473.46,428.51  "/>
   <polygon class="st2" id="svg_38" points="315.66,404.3 241.28,416.16 239.68,465.51 314.05,453.74  "/>
   <polygon class="st2" id="svg_39" points="313.82,460.84 239.44,472.61 232.64,682.24 307.01,670.64  "/>
   <polygon class="st2" id="svg_40" points="306.79,677.34 232.42,688.94 228.41,812.69 302.78,801.09  "/>
   <polygon class="st2" id="svg_41" points="147.15,702.24 76.3,713.29 71.7,837.13 142.55,826.08  "/>
   <polygon class="st2" id="svg_42" points="155.2,485.95 84.34,497.16 76.55,706.49 147.15,695.57  "/>
   <polygon class="st2" id="svg_43" points="157.3,429.49 86.43,440.83 84.6,490.05 155.2,478.88  "/>
   <polygon class="st2" id="svg_44" points="955.72,302.3 884.83,313.6 884.01,363.53 955.96,352.14  "/>
   <polygon class="st2" id="svg_45" points="955.96,359.21 884.01,370.6 880.23,581.23 952.81,569.91  "/>
   <polygon class="st2" id="svg_46" points="2349.52,581.09 2347.02,488.91 2274.31,500.25 2276.81,592.43  "/>
   <polygon class="st2" id="svg_47" points="2282.99,819.93 2355.7,808.83 2349.7,587.73 2276.99,599.07  "/>
   <polygon class="st2" id="svg_48" points="2286.6,952.97 2359.31,941.86 2355.9,816.15 2283.19,827.26  "/>
   <polygon class="st2" id="svg_49" points="2194.62,967.03 2191.63,841.25 2116.3,852.76 2119.28,978.54  "/>
   <polygon class="st2" id="svg_50" points="2110.89,624.98 2116.12,845.43 2191.46,833.92 2186.22,613.23  "/>
   <polygon class="st2" id="svg_51" points="2186.07,606.58 2183.88,514.36 2108.55,526.11 2110.73,618.33  "/>
   <polygon class="st2" id="svg_52" points="2020.14,632.46 2018.42,540.17 1942.81,551.96 1944.64,644.24  "/>
   <polygon class="st2" id="svg_53" points="2020.26,639.11 1944.76,650.89 1948.86,870.98 2024.37,859.45  "/>
   <polygon class="st2" id="svg_54" points="2026.85,992.66 2024.37,866.8 1949,878.32 1951.35,1004.19  "/>
   <polygon class="st2" id="svg_55" points="1857.52,892.29 1782.42,903.77 1784.13,1029.74 1859.24,1018.27  "/>
   <polygon class="st2" id="svg_56" points="1854.43,664.98 1779.33,676.69 1782.32,896.43 1857.42,884.95  "/>
   <polygon class="st2" id="svg_57" points="1854.34,658.32 1853.08,565.95 1777.98,577.67 1779.24,670.04  "/>
   <polygon class="st2" id="svg_58" points="1689.82,591.42 1614.2,603.21 1614.95,695.66 1690.67,683.85  "/>
   <polygon class="st2" id="svg_59" points="1690.72,690.51 1615,702.32 1616.79,921.72 1692.51,910.15  "/>
   <polygon class="st2" id="svg_60" points="1692.51,917.5 1616.85,929.06 1617.87,1055.14 1693.59,1043.57  "/>
   <polygon class="st2" id="svg_61" points="1525.97,942.95 1450.19,954.52 1450.65,1080.69 1527,1069.03  "/>
   <polygon class="st2" id="svg_62" points="1525.91,935.6 1524.13,716.5 1449.37,728.16 1450.19,947.17  "/>
   <polygon class="st2" id="svg_63" points="1523.33,617.39 1449.37,628.92 1449.37,721.49 1524.08,709.83  "/>
   <polygon class="st2" id="svg_64" points="1286.41,746.9 1361.06,735.26 1361.06,642.69 1286.41,654.34  "/>
   <polygon class="st2" id="svg_65" points="1286.41,972.19 1361.06,960.79 1361.06,741.93 1286.41,753.57  "/>
   <polygon class="st2" id="svg_66" points="1286.41,1105.78 1361.06,1094.38 1361.06,968.14 1286.41,979.55  "/>
   <polygon class="st2" id="svg_67" points="1118.01,1131.51 1194.53,1119.82 1194.92,993.53 1119.23,1005.09  "/>
   <polygon class="st2" id="svg_68" points="1119.31,997.72 1194.92,986.17 1195.62,767.73 1121.43,779.31  "/>
   <polygon class="st2" id="svg_69" points="1121.49,772.63 1195.62,761.06 1195.93,668.45 1122.39,679.92  "/>
   <polygon class="st2" id="svg_70" points="958.18,705.53 957.28,798.24 1032.19,786.56 1033.09,693.85  "/>
   <polygon class="st2" id="svg_71" points="955.1,1022.81 1030.01,1011.37 1032.12,793.23 957.21,804.92  "/>
   <polygon class="st2" id="svg_72" points="953.8,1156.6 1028.71,1145.16 1029.93,1018.73 955.1,1030.17  "/>
   <polygon class="st2" id="svg_73" points="789.85,1055.41 787.59,1181.99 862.35,1170.57 864.61,1043.99  "/>
   <polygon class="st2" id="svg_74" points="789.98,1048.04 864.75,1036.62 868.64,818.73 793.87,830.4  "/>
   <polygon class="st2" id="svg_75" points="870.41,719.22 795.65,730.88 793.99,823.71 868.75,812.05  "/>
   <polygon class="st2" id="svg_76" points="707.67,744.6 632.74,756.29 630.65,849.18 705.92,837.44  "/>
   <polygon class="st2" id="svg_77" points="625.59,1073.15 701.69,1061.53 705.8,844.13 630.5,855.88  "/>
   <polygon class="st2" id="svg_78" points="625.43,1080.53 622.57,1207.21 699.17,1195.5 701.56,1068.9  "/>
   <polygon class="st2" id="svg_79" points="460.75,1231.93 535.81,1220.46 538.67,1093.79 463.61,1105.26  "/>
   <polygon class="st2" id="svg_80" points="543.73,869.41 468.67,881.12 463.78,1097.88 538.83,1086.41  "/>
   <polygon class="st2" id="svg_81" points="545.97,769.82 470.91,781.53 468.82,874.43 543.88,862.72  "/>
   <polygon class="st2" id="svg_82" points="384.45,795.02 309.67,806.68 306.79,899.7 381.69,888.01  "/>
   <polygon class="st2" id="svg_83" points="381.49,894.71 306.43,906.42 299.4,1122.99 375.05,1111.43  "/>
   <polygon class="st2" id="svg_84" points="295.04,1257.25 371.06,1245.63 374.83,1118.82 299.16,1130.38  "/>
   <polygon class="st2" id="svg_85" points="134.48,1281.78 206.76,1270.73 210.88,1143.87 138.6,1154.91  "/>
   <polygon class="st2" id="svg_86" points="218.14,920.19 145.85,931.47 138.84,1147.52 211.12,1136.48  "/>
   <polygon class="st2" id="svg_87" points="221.38,820.45 149.09,831.73 146.07,924.76 218.14,913.52  "/>
   <polygon class="st2" id="svg_88" points="2278.69,961.54 2202.22,973.22 2208.96,1257.35 2286.4,1245.66  "/>
   <polygon class="st2" id="svg_89" points="2112.14,986.98 2033.57,998.99 2038.86,1283.03 2118.88,1270.95  "/>
   <polygon class="st2" id="svg_90" points="1944.61,1012.58 1866.28,1024.54 1870.15,1308.51 1949.91,1296.46  "/>
   <polygon class="st2" id="svg_91" points="1698.67,1050.15 1700.97,1334.05 1780.66,1322.02 1776.79,1038.22  "/>
   <polygon class="st2" id="svg_92" points="1534.82,1075.19 1537.48,1358.73 1612.89,1347.34 1610.59,1063.61  "/>
   <polygon class="st2" id="svg_93" points="1365.94,1100.99 1365.94,1384.63 1446.06,1372.53 1445.03,1088.9  "/>
   <polygon class="st2" id="svg_94" points="1199.61,1409.74 1276.72,1398.1 1277.61,1114.48 1200.49,1126.26  "/>
   <polygon class="st2" id="svg_95" points="1032.33,1435 1108.17,1423.55 1110.93,1139.95 1035.09,1151.53  "/>
   <polygon class="st2" id="svg_96" points="864.61,1460.32 940.11,1448.92 944.21,1165.42 869.6,1176.82  "/>
   <polygon class="st2" id="svg_97" points="706.21,1201.78 701.56,1484.93 776.55,1473.61 781.9,1190.22  "/>
   <polygon class="st2" id="svg_98" points="541.79,1226.9 535.4,1510.02 610.08,1498.75 616.47,1215.49  "/>
   <polygon class="st2" id="svg_99" points="368.22,1535.26 443.68,1523.87 451.38,1240.71 376.64,1252.13  "/>
   <polygon class="st2" id="svg_100" points="213.33,1277.08 204.15,1560.03 278.51,1548.8 287.7,1265.72  "/>
   <polygon class="st2" id="svg_101" points="54.43,1301.36 43.91,1584.22 114.75,1573.53 125.28,1290.54  "/>
   <polygon class="st2" id="svg_102" points="123.86,1608.56 195.8,1608.56 197.05,1570.01 124.77,1580.92  "/>
   <polygon class="st2" id="svg_103" points="283.64,1608.56 360.27,1608.56 362.15,1545.08 285.32,1556.68  "/>
   <polygon class="st2" id="svg_104" points="452.26,1608.56 527.06,1608.56 529.06,1519.88 454,1531.21  "/>
   <polygon class="st2" id="svg_105" points="613.52,1608.56 691.38,1608.56 693.52,1495.05 615.81,1506.78  "/>
   <polygon class="st2" id="svg_106" points="779.98,1608.56 854.53,1608.56 857,1470.37 782.24,1481.66  "/>
   <polygon class="st2" id="svg_107" points="949.41,1608.56 1024.21,1608.56 1025.8,1444.89 950.89,1456.2  "/>
   <polygon class="st2" id="svg_108" points="1113.37,1608.56 1193.01,1608.56 1193.59,1419.55 1115.09,1431.4  "/>
   <polygon class="st2" id="svg_109" points="1286.41,1608.56 1361.06,1608.56 1361.06,1394.27 1286.41,1405.54  "/>
   <polygon class="st2" id="svg_110" points="1451.74,1380.58 1452.56,1608.56 1531.39,1608.56 1529.44,1368.85  "/>
   <polygon class="st2" id="svg_111" points="1620.31,1355.13 1622.38,1608.56 1698.19,1608.56 1696.03,1343.7  "/>
   <polygon class="st2" id="svg_112" points="1788.21,1329.78 1792,1608.56 1860.39,1608.56 1867.25,1607.52 1863.32,1318.44  "/>
   <polygon class="st2" id="svg_113" points="1919.36,1608.56 1955.72,1608.56 1955.62,1603.08  "/>
   <polygon class="st2" id="svg_114" points="1956.94,1304.31 1962.33,1593.17 2037.83,1581.77 2032.45,1292.91  "/>
   <polygon class="st2" id="svg_115" points="2044.58,1589.65 2044.93,1608.56 2126.89,1608.56 2126.15,1577.34  "/>
   <polygon class="st2" id="svg_116" points="2216.23,1563.74 2217.29,1608.56 2296.25,1608.56 2294.72,1551.89  "/>
   <polygon class="st2" id="svg_117" points="2367.47,1242.33 2294.75,1253.3 2302.58,1541.8 2375.3,1530.82  "/>
   <polygon class="st2" id="svg_118" points="2126.4,1278.72 2133.25,1567.36 2208.59,1555.99 2201.74,1267.35  "/>
  </g>
  <g id="svg_119">
   <polygon class="st3" id="svg_120" points="2182.73,151.45 2182.88,157.96 2256.56,146.3 2255.18,95.21 2251.42,95.81 2252.63,140.39  "/>
   <polygon class="st3" id="svg_121" points="2252.81,153.96 2258.58,359.73 2187.93,370.75 2188.08,377.25 2262.52,365.64 2256.56,153.37  "/>
   <polygon class="st3" id="svg_122" points="2262.09,488.97 2191,500.06 2191.15,506.55 2266.03,494.88 2262.7,372.28 2258.94,372.86  "/>
   <polygon class="st3" id="svg_123" points="2018.25,177.48 2018.37,184 2092.82,172.21 2091.61,121.28 2087.82,121.88 2088.88,166.3  "/>
   <polygon class="st3" id="svg_124" points="2089.04,179.88 2094.07,385.39 2022.34,396.58 2022.46,403.08 2098.01,391.3 2092.82,179.28  "/>
   <polygon class="st3" id="svg_125" points="2097.14,514.69 2024.75,525.99 2024.87,532.49 2101.08,520.6 2098.17,397.94 2094.39,398.53  "/>
   <polygon class="st3" id="svg_126" points="1931.98,540.46 1859.85,551.71 1859.94,558.21 1935.91,546.36 1933.63,423.6 1929.82,424.2  "/>
   <polygon class="st3" id="svg_127" points="1929.57,411.04 1858.09,422.19 1858.18,428.7 1933.51,416.95 1929.56,205.12 1925.74,205.73  "/>
   <polygon class="st3" id="svg_128" points="1855.11,203.3 1855.2,209.82 1929.43,198.07 1928.48,147.27 1924.66,147.88 1925.49,192.16  "/>
   <polygon class="st3" id="svg_129" points="1691.99,229.12 1692.04,235.64 1765.72,223.98 1765.03,173.32 1761.18,173.94 1761.78,218.07  "/>
   <polygon class="st3" id="svg_130" points="1761.87,231.66 1764.75,436.75 1693.76,447.16 1693.81,453.64 1768.69,442.66 1765.72,231.05  "/>
   <polygon class="st3" id="svg_131" points="1694.79,577.45 1694.84,583.97 1770.45,572.17 1768.69,449.33 1764.85,449.93 1766.51,566.26  "/>
   <polygon class="st3" id="svg_132" points="1602.86,591.79 1531.33,602.95 1531.38,609.46 1606.8,597.7 1605.8,474.74 1601.91,475.34  "/>
   <polygon class="st3" id="svg_133" points="1601.8,462.17 1530.27,473.32 1530.33,479.84 1605.74,468.08 1604.02,256.64 1600.14,257.26  "/>
   <polygon class="st3" id="svg_134" points="1528.5,255 1528.55,261.52 1603.96,249.58 1603.55,199.06 1599.67,199.67 1600.02,243.67  "/>
   <polygon class="st3" id="svg_135" points="1365.94,280.72 1365.94,287.26 1441.89,275.23 1441.89,224.82 1437.95,225.45 1437.95,269.33  "/>
   <polygon class="st3" id="svg_136" points="1365.94,498.95 1365.94,505.48 1442.87,493.48 1442.1,282.27 1438.19,282.89 1438.93,487.57  "/>
   <polygon class="st3" id="svg_137" points="1365.94,628.74 1365.94,635.26 1443.34,623.19 1442.89,500.14 1438.98,500.76 1439.4,617.28  "/>
   <polygon class="st3" id="svg_138" points="1275.12,642.91 1201.95,654.32 1201.94,660.84 1279.06,648.82 1279.44,525.64 1275.48,526.26  "/>
   <polygon class="st3" id="svg_139" points="1275.52,513.06 1202.22,524.49 1202.19,531.02 1279.46,518.97 1280.12,307.91 1276.16,308.53  "/>
   <polygon class="st3" id="svg_140" points="1276.2,294.93 1203.04,306.51 1203.02,313.04 1280.14,300.83 1280.29,250.57 1276.33,251.2  "/>
   <polygon class="st3" id="svg_141" points="1043.05,331.83 1042.98,338.37 1118.83,326.37 1119.31,276.23 1115.31,276.86 1114.89,320.46  "/>
   <polygon class="st3" id="svg_142" points="1040.72,549.68 1040.65,556.21 1116.71,544.35 1118.76,333.44 1114.76,334.08 1112.77,538.44  "/>
   <polygon class="st3" id="svg_143" points="1039.32,679.68 1039.24,686.22 1115.45,674.33 1116.38,551.07 1112.39,551.69 1111.51,668.42  "/>
   <polygon class="st3" id="svg_144" points="878.02,704.84 877.91,711.38 950.93,699.99 952.68,576.68 948.65,577.3 946.99,694.08  "/>
   <polygon class="st3" id="svg_145" points="715.11,730.25 714.98,736.79 790.67,724.99 793.2,601.48 789.12,602.11 786.73,719.08  "/>
   <polygon class="st3" id="svg_146" points="717.56,600.08 717.44,606.63 793.13,594.71 797.1,384.35 793.03,385 789.19,588.8  "/>
   <polygon class="st3" id="svg_147" points="721.66,382.69 721.54,389.24 797.23,377.26 798.36,327.38 794.27,328.03 793.29,371.36  "/>
   <polygon class="st3" id="svg_148" points="560.25,408.24 560.1,414.79 634.8,402.97 635.92,353.26 631.83,353.92 630.86,397.06  "/>
   <polygon class="st3" id="svg_149" points="555.35,625.38 555.21,631.93 629.9,620.28 634.64,410.07 630.55,410.71 625.96,614.37  "/>
   <polygon class="st3" id="svg_150" points="552.42,755.63 552.27,762.17 626.96,750.52 629.85,626.96 625.76,627.59 623.02,744.62  "/>
   <polygon class="st3" id="svg_151" points="390.65,780.86 390.46,787.41 464.02,775.94 467.38,652.3 463.26,652.94 460.08,770.03  "/>
   <polygon class="st3" id="svg_152" points="394.57,650.46 394.38,657.01 467.56,645.6 473.27,435.6 469.15,436.24 463.62,639.69  "/>
   <polygon class="st3" id="svg_153" points="400.98,433.45 400.78,440.01 473.46,428.51 474.81,378.94 470.69,379.59 469.53,422.6  "/>
   <polygon class="st3" id="svg_154" points="239.89,458.94 239.68,465.51 314.05,453.74 315.66,404.3 311.5,404.96 310.11,447.83  "/>
   <polygon class="st3" id="svg_155" points="232.85,675.68 232.64,682.24 307.01,670.64 313.82,460.84 309.67,461.5 303.07,664.73  "/>
   <polygon class="st3" id="svg_156" points="228.62,806.13 228.41,812.69 302.78,801.09 306.79,677.34 302.64,677.99 298.84,795.18  "/>
   <polygon class="st3" id="svg_157" points="71.94,830.57 71.7,837.13 142.55,826.08 147.15,702.24 142.97,702.89 138.61,820.17  "/>
   <polygon class="st3" id="svg_158" points="76.8,699.94 76.55,706.49 147.15,695.57 155.2,485.95 151.01,486.61 143.22,689.66  "/>
   <polygon class="st3" id="svg_159" points="84.85,483.48 84.6,490.05 155.2,478.88 157.3,429.49 153.08,430.17 151.26,472.97  "/>
   <polygon class="st3" id="svg_160" points="884.11,356.98 884.01,363.53 955.96,352.14 955.72,302.3 951.81,302.92 952.02,346.23  "/>
   <polygon class="st3" id="svg_161" points="880.35,574.69 880.23,581.23 952.81,569.91 955.96,359.21 951.92,359.85 948.87,564.01  "/>
   <polygon class="st3" id="svg_162" points="2276.64,585.93 2276.81,592.43 2349.52,581.09 2347.02,488.91 2343.26,489.5 2345.58,575.18  "/>
   <polygon class="st3" id="svg_163" points="2351.76,802.92 2282.81,813.45 2282.99,819.93 2355.7,808.83 2349.7,587.73 2345.94,588.32  "/>
   <polygon class="st3" id="svg_164" points="2355.37,935.96 2286.42,946.49 2286.6,952.97 2359.31,941.86 2355.9,816.15 2352.14,816.72  "/>
   <polygon class="st3" id="svg_165" points="2119.12,972.05 2119.28,978.54 2194.62,967.03 2191.63,841.25 2187.85,841.82 2190.68,961.12  "/>
   <polygon class="st3" id="svg_166" points="2191.46,833.92 2186.22,613.23 2182.44,613.82 2187.52,828.01 2115.97,838.94 2116.12,845.43  "/>
   <polygon class="st3" id="svg_167" points="2110.58,611.83 2110.73,618.33 2186.07,606.58 2183.88,514.36 2180.09,514.95 2182.13,600.67  "/>
   <polygon class="st3" id="svg_168" points="1944.51,637.74 1944.64,644.24 2020.14,632.46 2018.42,540.17 2014.6,540.76 2016.2,626.55  "/>
   <polygon class="st3" id="svg_169" points="2024.37,859.45 2020.26,639.11 2016.44,639.71 2020.43,853.54 1948.74,864.49 1948.86,870.98  "/>
   <polygon class="st3" id="svg_170" points="1951.23,997.7 1951.35,1004.19 2026.85,992.66 2024.37,866.8 2020.56,867.38 2022.91,986.75  "/>
   <polygon class="st3" id="svg_171" points="1859.24,1018.27 1857.52,892.29 1853.67,892.88 1855.3,1012.36 1784.04,1023.24 1784.13,1029.74  "/>
   <polygon class="st3" id="svg_172" points="1850.58,665.58 1853.48,879.04 1782.23,889.93 1782.32,896.43 1857.42,884.95 1854.43,664.98  "/>
   <polygon class="st3" id="svg_173" points="1779.15,663.53 1779.24,670.04 1854.34,658.32 1853.08,565.95 1849.23,566.55 1850.4,652.41  "/>
   <polygon class="st3" id="svg_174" points="1614.9,689.15 1614.95,695.66 1690.67,683.85 1689.82,591.42 1685.94,592.02 1686.73,677.94  "/>
   <polygon class="st3" id="svg_175" points="1686.83,691.12 1688.57,904.24 1616.74,915.22 1616.79,921.72 1692.51,910.15 1690.72,690.51  "/>
   <polygon class="st3" id="svg_176" points="1617.82,1048.64 1617.87,1055.14 1693.59,1043.57 1692.51,917.5 1688.62,918.1 1689.65,1037.67  "/>
   <polygon class="st3" id="svg_177" points="1450.62,1074.18 1450.65,1080.69 1527,1069.03 1525.97,942.95 1522.09,943.54 1523.06,1063.12  "/>
   <polygon class="st3" id="svg_178" points="1450.17,940.66 1450.19,947.17 1525.91,935.6 1524.13,716.5 1520.25,717.1 1521.98,929.69  "/>
   <polygon class="st3" id="svg_179" points="1449.37,714.96 1449.37,721.49 1524.08,709.83 1523.33,617.39 1519.44,617.99 1520.14,703.93  "/>
   <polygon class="st3" id="svg_180" points="1357.12,729.35 1286.41,740.38 1286.41,746.9 1361.06,735.26 1361.06,642.69 1357.12,643.31  "/>
   <polygon class="st3" id="svg_181" points="1357.12,954.88 1286.41,965.68 1286.41,972.19 1361.06,960.79 1361.06,741.93 1357.12,742.54  "/>
   <polygon class="st3" id="svg_182" points="1357.12,1088.47 1286.41,1099.27 1286.41,1105.78 1361.06,1094.38 1361.06,968.14 1357.12,968.74  "/>
   <polygon class="st3" id="svg_183" points="1190.59,1113.91 1118.07,1124.99 1118.01,1131.51 1194.53,1119.82 1194.92,993.53 1190.96,994.13  "/>
   <polygon class="st3" id="svg_184" points="1190.98,980.26 1119.37,991.2 1119.31,997.72 1194.92,986.17 1195.62,767.73 1191.66,768.35  "/>
   <polygon class="st3" id="svg_185" points="1191.97,669.07 1191.68,755.16 1121.55,766.09 1121.49,772.63 1195.62,761.06 1195.93,668.45  "/>
   <polygon class="st3" id="svg_186" points="957.34,791.71 957.28,798.24 1032.19,786.56 1033.09,693.85 1029.09,694.47 1028.25,780.65  "/>
   <polygon class="st3" id="svg_187" points="1032.12,793.23 1028.12,793.86 1026.07,1005.46 955.16,1016.29 955.1,1022.81 1030.01,1011.37  "/>
   <polygon class="st3" id="svg_188" points="1028.71,1145.16 1029.93,1018.73 1025.93,1019.34 1024.77,1139.25 953.86,1150.08 953.8,1156.6  "/>
   <polygon class="st3" id="svg_189" points="862.35,1170.57 864.61,1043.99 860.56,1044.61 858.41,1164.66 787.71,1175.47 787.59,1181.99  "/>
   <polygon class="st3" id="svg_190" points="868.64,818.73 864.58,819.37 860.81,1030.71 790.1,1041.51 789.98,1048.04 864.75,1036.62  "/>
   <polygon class="st3" id="svg_191" points="794.1,817.17 793.99,823.71 868.75,812.05 870.41,719.22 866.36,719.85 864.82,806.14  "/>
   <polygon class="st3" id="svg_192" points="630.79,842.64 630.65,849.18 705.92,837.44 707.67,744.6 703.61,745.24 701.98,831.53  "/>
   <polygon class="st3" id="svg_193" points="705.8,844.13 701.73,844.77 697.76,1055.62 625.74,1066.62 625.59,1073.15 701.69,1061.53  "/>
   <polygon class="st3" id="svg_194" points="699.17,1195.5 701.56,1068.9 697.49,1069.52 695.23,1189.59 622.72,1200.67 622.57,1207.21  "/>
   <polygon class="st3" id="svg_195" points="535.81,1220.46 538.67,1093.79 534.58,1094.41 531.87,1214.55 460.9,1225.4 460.75,1231.93  "/>
   <polygon class="st3" id="svg_196" points="543.73,869.41 539.64,870.05 534.89,1080.5 463.93,1091.34 463.78,1097.88 538.83,1086.41  "/>
   <polygon class="st3" id="svg_197" points="468.97,867.88 468.82,874.43 543.88,862.72 545.97,769.82 541.89,770.46 539.94,856.81  "/>
   <polygon class="st3" id="svg_198" points="307,893.14 306.79,899.7 381.69,888.01 384.45,795.02 380.32,795.66 377.75,882.11  "/>
   <polygon class="st3" id="svg_199" points="381.49,894.71 377.36,895.36 371.11,1105.52 299.61,1116.45 299.4,1122.99 375.05,1111.43  "/>
   <polygon class="st3" id="svg_200" points="371.06,1245.63 374.83,1118.82 370.69,1119.45 367.12,1239.72 295.25,1250.7 295.04,1257.25  "/>
   <polygon class="st3" id="svg_201" points="206.76,1270.73 210.88,1143.87 206.73,1144.5 202.82,1264.82 134.69,1275.23 134.48,1281.78  "/>
   <polygon class="st3" id="svg_202" points="218.14,920.19 213.99,920.84 207.18,1130.57 139.05,1140.98 138.84,1147.52 211.12,1136.48  "/>
   <polygon class="st3" id="svg_203" points="146.28,918.21 146.07,924.76 218.14,913.52 221.38,820.45 217.21,821.1 214.2,907.62  "/>
   <polygon class="st3" id="svg_204" points="2286.4,1245.66 2278.69,961.54 2274.93,962.11 2282.47,1239.75 2208.81,1250.87 2208.96,1257.35  "/>
   <polygon class="st3" id="svg_205" points="2118.88,1270.95 2112.14,986.98 2108.36,987.56 2114.94,1265.04 2038.74,1276.55 2038.86,1283.03  "/>
   <polygon class="st3" id="svg_206" points="1949.91,1296.46 1944.61,1012.58 1940.8,1013.16 1945.97,1290.56 1870.06,1302.02 1870.15,1308.51     "/>
   <polygon class="st3" id="svg_207" points="1772.94,1038.8 1776.72,1316.11 1700.92,1327.55 1700.97,1334.05 1780.66,1322.02 1776.79,1038.22     "/>
   <polygon class="st3" id="svg_208" points="1606.7,1064.2 1608.95,1341.44 1537.41,1352.24 1537.48,1358.73 1612.89,1347.34 1610.59,1063.61  "/>
   <polygon class="st3" id="svg_209" points="1441.11,1089.5 1442.12,1366.62 1365.94,1378.13 1365.94,1384.63 1446.06,1372.53 1445.03,1088.9  "/>
   <polygon class="st3" id="svg_210" points="1272.78,1392.19 1199.63,1403.23 1199.61,1409.74 1276.72,1398.1 1277.61,1114.48 1273.65,1115.09     "/>
   <polygon class="st3" id="svg_211" points="1106.93,1140.56 1104.24,1417.64 1032.4,1428.48 1032.33,1435 1108.17,1423.55 1110.93,1139.95  "/>
   <polygon class="st3" id="svg_212" points="936.18,1443.01 864.73,1453.8 864.61,1460.32 940.11,1448.92 944.21,1165.42 940.18,1166.04  "/>
   <polygon class="st3" id="svg_213" points="776.55,1473.61 781.9,1190.22 777.83,1190.84 772.61,1467.7 701.66,1478.42 701.56,1484.93  "/>
   <polygon class="st3" id="svg_214" points="610.08,1498.75 616.47,1215.49 612.38,1216.12 606.14,1492.84 535.55,1503.49 535.4,1510.02  "/>
   <polygon class="st3" id="svg_215" points="447.26,1241.34 439.74,1517.96 368.42,1528.73 368.22,1535.26 443.68,1523.87 451.38,1240.71  "/>
   <polygon class="st3" id="svg_216" points="283.55,1266.36 274.57,1542.9 204.36,1553.5 204.15,1560.03 278.51,1548.8 287.7,1265.72  "/>
   <polygon class="st3" id="svg_217" points="121.1,1291.18 110.82,1567.62 44.16,1577.68 43.91,1584.22 114.75,1573.53 125.28,1290.54  "/>
   <polygon class="st3" id="svg_218" points="191.86,1602.65 124.06,1602.65 123.86,1608.56 195.8,1608.56 197.05,1570.01 192.9,1570.63  "/>
   <polygon class="st3" id="svg_219" points="356.33,1602.65 283.83,1602.65 283.64,1608.56 360.27,1608.56 362.15,1545.08 358.02,1545.7  "/>
   <polygon class="st3" id="svg_220" points="523.12,1602.65 452.39,1602.65 452.26,1608.56 527.06,1608.56 529.06,1519.88 524.97,1520.5  "/>
   <polygon class="st3" id="svg_221" points="687.44,1602.65 613.65,1602.65 613.52,1608.56 691.38,1608.56 693.52,1495.05 689.46,1495.67  "/>
   <polygon class="st3" id="svg_222" points="850.6,1602.65 780.08,1602.65 779.98,1608.56 854.53,1608.56 857,1470.37 852.95,1470.98  "/>
   <polygon class="st3" id="svg_223" points="1020.27,1602.65 949.47,1602.65 949.41,1608.56 1024.21,1608.56 1025.8,1444.89 1021.79,1445.49  "/>
   <polygon class="st3" id="svg_224" points="1189.07,1602.65 1113.43,1602.65 1113.37,1608.56 1193.01,1608.56 1193.59,1419.55 1189.63,1420.15     "/>
   <polygon class="st3" id="svg_225" points="1357.12,1602.65 1286.41,1602.65 1286.41,1608.56 1361.06,1608.56 1361.06,1394.27 1357.12,1394.86     "/>
   <polygon class="st3" id="svg_226" points="1525.55,1369.43 1527.45,1602.65 1452.54,1602.65 1452.56,1608.56 1531.39,1608.56 1529.44,1368.85     "/>
   <polygon class="st3" id="svg_227" points="1692.15,1344.28 1694.25,1602.65 1622.33,1602.65 1622.38,1608.56 1698.19,1608.56 1696.03,1343.7     "/>
   <polygon class="st3" id="svg_228" points="1859.47,1319.02 1863.32,1601.61 1856.45,1602.65 1791.92,1602.65 1792,1608.56 1860.39,1608.56    1867.25,1607.52 1863.32,1318.44  "/>
   <polygon class="st3" id="svg_229" points="1919.36,1608.56 1955.72,1608.56 1955.62,1603.08  "/>
   <polygon class="st3" id="svg_230" points="2028.63,1293.48 2033.9,1575.86 1962.21,1586.68 1962.33,1593.17 2037.83,1581.77 2032.45,1292.91     "/>
   <polygon class="st3" id="svg_231" points="2122.36,1577.91 2122.95,1602.65 2044.82,1602.65 2044.93,1608.56 2126.89,1608.56 2126.15,1577.34     "/>
   <polygon class="st3" id="svg_232" points="2290.95,1552.46 2292.32,1602.65 2217.15,1602.65 2217.29,1608.56 2296.25,1608.56 2294.72,1551.89     "/>
   <polygon class="st3" id="svg_233" points="2375.3,1530.82 2367.47,1242.33 2363.71,1242.89 2371.36,1524.91 2302.41,1535.32 2302.58,1541.8  "/>
   <polygon class="st3" id="svg_234" points="2197.95,1267.92 2204.65,1550.08 2133.09,1560.88 2133.25,1567.36 2208.59,1555.99 2201.74,1267.35     "/>
  </g>
 </g>
</svg>